HIERARCHY
ROOT Hips
{
  OFFSET -4.953 40.613 -228.571
  CHANNELS 6 Xposition Yposition Zposition Zrotation Xrotation Yrotation
  JOINT LeftUpLeg
  {
    OFFSET 7.572 -5.366 4.674
    CHANNELS 6 Xposition Yposition Zposition Zrotation Xrotation Yrotation
    JOINT LeftLeg
    {
      OFFSET -0.000 -44.197 0.000
      CHANNELS 6 Xposition Yposition Zposition Zrotation Xrotation Yrotation
      JOINT LeftFoot
      {
        OFFSET -0.000 -38.405 -0.000
        CHANNELS 6 Xposition Yposition Zposition Zrotation Xrotation Yrotation
        End Site
        {
          OFFSET 0.000 -9.372 5.411
        }
      }
    }
  }
  JOINT RightUpLeg
  {
    OFFSET -7.484 -5.750 4.503
    CHANNELS 6 Xposition Yposition Zposition Zrotation Xrotation Yrotation
    JOINT RightLeg
    {
      OFFSET -0.000 -44.537 0.000
      CHANNELS 6 Xposition Yposition Zposition Zrotation Xrotation Yrotation
      JOINT RightFoot
      {
        OFFSET -0.000 -38.313 -0.000
        CHANNELS 6 Xposition Yposition Zposition Zrotation Xrotation Yrotation
        End Site
        {
          OFFSET 0.000 -8.904 5.141
        }
      }
    }
  }
  JOINT Spine
  {
    OFFSET 0.000 4.585 -4.585
    CHANNELS 6 Xposition Yposition Zposition Zrotation Xrotation Yrotation
    JOINT LeftShoulder
    {
      OFFSET -0.000 36.302 0.000
      CHANNELS 6 Xposition Yposition Zposition Zrotation Xrotation Yrotation
      JOINT LeftArm
      {
        OFFSET 19.408 0.000 -0.000
        CHANNELS 6 Xposition Yposition Zposition Zrotation Xrotation Yrotation
        JOINT LeftForeArm
        {
          OFFSET 24.971 0.000 0.000
          CHANNELS 6 Xposition Yposition Zposition Zrotation Xrotation Yrotation
          JOINT LeftHand
          {
            OFFSET 25.055 0.000 -0.000
            CHANNELS 6 Xposition Yposition Zposition Zrotation Xrotation Yrotation
            JOINT LeftHandThumb1
            {
            OFFSET 4.970 -0.620 3.390
            CHANNELS 6 Xposition Yposition Zposition Zrotation Xrotation Yrotation
              JOINT LeftHandThumb2
              {
              OFFSET 2.150 -0.000 0.000
              CHANNELS 6 Xposition Yposition Zposition Zrotation Xrotation Yrotation
                JOINT LeftHandThumb3
                {
                OFFSET 2.200 -0.000 0.000
                CHANNELS 6 Xposition Yposition Zposition Zrotation Xrotation Yrotation
                  JOINT LeftHandThumb4
                  {
                  OFFSET 1.700 -0.000 0.000
                  CHANNELS 6 Xposition Yposition Zposition Zrotation Xrotation Yrotation
                  }
                }
              }
            }
            JOINT LeftHandIndex1
            {
            OFFSET 8.730 0.680 2.070
            CHANNELS 6 Xposition Yposition Zposition Zrotation Xrotation Yrotation
              JOINT LeftHandIndex2
              {
              OFFSET 2.670 -0.000 0.000
              CHANNELS 6 Xposition Yposition Zposition Zrotation Xrotation Yrotation
                JOINT LeftHandIndex3
                {
                OFFSET 2.130 -0.000 0.000
                CHANNELS 6 Xposition Yposition Zposition Zrotation Xrotation Yrotation
                  JOINT LeftHandIndex4
                  {
                  OFFSET 1.800 -0.000 0.000
                  CHANNELS 6 Xposition Yposition Zposition Zrotation Xrotation Yrotation
                  }
                }
              }
            }
            JOINT LeftHandMiddle1
            {
            OFFSET 9.220 0.670 0.550
            CHANNELS 6 Xposition Yposition Zposition Zrotation Xrotation Yrotation
              JOINT LeftHandMiddle2
              {
              OFFSET 2.660 -0.000 0.000
              CHANNELS 6 Xposition Yposition Zposition Zrotation Xrotation Yrotation
                JOINT LeftHandMiddle3
                {
                OFFSET 2.280 -0.000 0.000
                CHANNELS 6 Xposition Yposition Zposition Zrotation Xrotation Yrotation
                  JOINT LeftHandMiddle4
                  {
                  OFFSET 1.500 -0.000 0.000
                  CHANNELS 6 Xposition Yposition Zposition Zrotation Xrotation Yrotation
                  }
                }
              }
            }
            JOINT LeftHandRing1
            {
            OFFSET 9.250 0.670 -1.130
            CHANNELS 6 Xposition Yposition Zposition Zrotation Xrotation Yrotation
              JOINT LeftHandRing2
              {
              OFFSET 2.470 -0.000 0.000
              CHANNELS 6 Xposition Yposition Zposition Zrotation Xrotation Yrotation
                JOINT LeftHandRing3
                {
                OFFSET 2.210 -0.000 0.000
                CHANNELS 6 Xposition Yposition Zposition Zrotation Xrotation Yrotation
                  JOINT LeftHandRing4
                  {
                  OFFSET 1.800 -0.000 0.000
                  CHANNELS 6 Xposition Yposition Zposition Zrotation Xrotation Yrotation
                  }
                }
              }
            }
            JOINT LeftHandPinky1
            {
            OFFSET 9.350 0.660 -2.720
            CHANNELS 6 Xposition Yposition Zposition Zrotation Xrotation Yrotation
              JOINT LeftHandPinky2
              {
              OFFSET 1.630 -0.000 0.000
              CHANNELS 6 Xposition Yposition Zposition Zrotation Xrotation Yrotation
                JOINT LeftHandPinky3
                {
                OFFSET 1.710 -0.000 0.000
                CHANNELS 6 Xposition Yposition Zposition Zrotation Xrotation Yrotation
                  JOINT LeftHandPinky4
                  {
                  OFFSET 1.800 -0.000 0.000
                  CHANNELS 6 Xposition Yposition Zposition Zrotation Xrotation Yrotation
                  }
                }
              }
            }
          }
        }
      }
    }
    JOINT RightShoulder
    {
      OFFSET -0.000 36.302 0.000
      CHANNELS 6 Xposition Yposition Zposition Zrotation Xrotation Yrotation
      JOINT RightArm
      {
        OFFSET -20.180 0.000 -0.000
        CHANNELS 6 Xposition Yposition Zposition Zrotation Xrotation Yrotation
        JOINT RightForeArm
        {
          OFFSET -25.433 0.000 0.000
          CHANNELS 6 Xposition Yposition Zposition Zrotation Xrotation Yrotation
          JOINT RightHand
          {
            OFFSET -25.830 0.000 -0.000
            CHANNELS 6 Xposition Yposition Zposition Zrotation Xrotation Yrotation
            JOINT RightHandThumb1
            {
            OFFSET -4.970 -0.620 3.390
            CHANNELS 6 Xposition Yposition Zposition Zrotation Xrotation Yrotation
              JOINT RightHandThumb2
              {
              OFFSET -2.150 0.000 0.000
              CHANNELS 6 Xposition Yposition Zposition Zrotation Xrotation Yrotation
                JOINT RightHandThumb3
                {
                OFFSET -2.200 0.000 0.000
                CHANNELS 6 Xposition Yposition Zposition Zrotation Xrotation Yrotation
                  JOINT RightHandThumb4
                  {
                  OFFSET -1.700 0.000 0.000
                  CHANNELS 6 Xposition Yposition Zposition Zrotation Xrotation Yrotation
                  }
                }
              }
            }
            JOINT RightHandIndex1
            {
            OFFSET -8.730 0.680 2.070
            CHANNELS 6 Xposition Yposition Zposition Zrotation Xrotation Yrotation
              JOINT RightHandIndex2
              {
              OFFSET -2.670 0.000 0.000
              CHANNELS 6 Xposition Yposition Zposition Zrotation Xrotation Yrotation
                JOINT RightHandIndex3
                {
                OFFSET -2.130 0.000 0.000
                CHANNELS 6 Xposition Yposition Zposition Zrotation Xrotation Yrotation
                  JOINT RightHandIndex4
                  {
                  OFFSET -1.800 0.000 0.000
                  CHANNELS 6 Xposition Yposition Zposition Zrotation Xrotation Yrotation
                  }
                }
              }
            }
            JOINT RightHandMiddle1
            {
            OFFSET -9.220 0.670 0.550
            CHANNELS 6 Xposition Yposition Zposition Zrotation Xrotation Yrotation
              JOINT RightHandMiddle2
              {
              OFFSET -2.660 0.000 0.000
              CHANNELS 6 Xposition Yposition Zposition Zrotation Xrotation Yrotation
                JOINT RightHandMiddle3
                {
                OFFSET -2.280 0.000 0.000
                CHANNELS 6 Xposition Yposition Zposition Zrotation Xrotation Yrotation
                  JOINT RightHandMiddle4
                  {
                  OFFSET -1.500 0.000 0.000
                  CHANNELS 6 Xposition Yposition Zposition Zrotation Xrotation Yrotation
                  }
                }
              }
            }
            JOINT RightHandRing1
            {
            OFFSET -9.250 0.670 -1.130
            CHANNELS 6 Xposition Yposition Zposition Zrotation Xrotation Yrotation
              JOINT RightHandRing2
              {
              OFFSET -2.470 0.000 0.000
              CHANNELS 6 Xposition Yposition Zposition Zrotation Xrotation Yrotation
                JOINT RightHandRing3
                {
                OFFSET -2.210 0.000 0.000
                CHANNELS 6 Xposition Yposition Zposition Zrotation Xrotation Yrotation
                  JOINT RightHandRing4
                  {
                  OFFSET -1.800 0.000 0.000
                  CHANNELS 6 Xposition Yposition Zposition Zrotation Xrotation Yrotation
                  }
                }
              }
            }
            JOINT RightHandPinky1
            {
            OFFSET -9.350 0.660 -2.720
            CHANNELS 6 Xposition Yposition Zposition Zrotation Xrotation Yrotation
              JOINT RightHandPinky2
              {
              OFFSET -1.630 0.000 0.000
              CHANNELS 6 Xposition Yposition Zposition Zrotation Xrotation Yrotation
                JOINT RightHandPinky3
                {
                OFFSET -1.710 0.000 0.000
                CHANNELS 6 Xposition Yposition Zposition Zrotation Xrotation Yrotation
                  JOINT RightHandPinky4
                  {
                  OFFSET -1.800 0.000 0.000
                  CHANNELS 6 Xposition Yposition Zposition Zrotation Xrotation Yrotation
                  }
                }
              }
            }
          }
        }
      }
    }
    JOINT Neck
    {
      OFFSET -0.000 36.302 0.000
      CHANNELS 6 Xposition Yposition Zposition Zrotation Xrotation Yrotation
      JOINT Head
      {
        OFFSET -0.000 12.755 0.000
        CHANNELS 6 Xposition Yposition Zposition Zrotation Xrotation Yrotation
        End Site
        {
          OFFSET -0.000 0.051 0.000
        }
      }
    }
  }
}
MOTION
Frames:	6
Frame Time:	0.0333333
-2.45055 42.2338 -233.024 -0.348218 34.8958 -2.82053 7.09418 -5.65982 4.86908 5.3819 -22.335 -1.7106 -1.49012e-06 -46.6427 -7.15256e-05 -6.37142 -6.88133 -0.766496 -2.98023e-06 -38.993 -2.38419e-05 11.722 -15.4589 9.83382 -7.16419 -6.27292 4.11022 -4.57009 -25.7599 -5.81618 -2.98023e-06 -46.8719 0 7.47334 -1.19787 0.157125 2.98023e-06 -38.8692 0 1.29433 -6.80842 0.913825 2.98023e-06 4.85397 -4.85392 0.0599037 -34.1872 0.0166571 -4.47035e-06 36.3015 -2.38419e-05 -31.1505 1.08856e-05 -5.73991 19.6486 0 0 -33.1729 45.2087 -16.5013 22.6895 1.19209e-05 3.57628e-05 1.09138e-05 0 -51.2567 28.9072 4.76837e-05 4.47035e-06 7.812 -0.488861 -6.76837 0.0062 0.0497 0.0339 0 0 0 0 0.0215 0 0 0 0 0 0.022 0 0 0 0 0 0.017 0 0 0 0 -0.0068 0.0873 0.0207 0 0 0 0 0.0267 0 0 0 0 0 0.0213 0 0 0 0 0 0.018 0 0 0 0 -0.0067 0.0922 0.0055 0 0 0 0 0.0266 0 0 0 0 0 0.0228 0 0 0 0 0 0.015 0 0 0 0 -0.0067 0.0925 -0.0113 0 0 0 0 0.0247 0 0 0 0 0 0.0221 0 0 0 0 0 0.018 0 0 0 0 -0.0066 0.0935 -0.0272 0 0 0 0 0.0163 0 0 0 0 0 0.0171 0 0 0 0 0 0.018 0 0 0 0 -4.47035e-06 36.3015 -2.38419e-05 31.9354 -4.53567e-06 5.91466 -19.0701 0 4.76837e-05 39.8585 25.9643 -2.85649 -22.5811 -1.19209e-05 -2.38419e-05 -3.03979e-06 1.02453e-05 56.2525 -30.4942 0 1.19209e-05 14.2257 0.452997 14.8936 -0.0062 0.0497 0.0339 0 0 0 0 0.0215 0 0 0 0 0 0.022 0 0 0 0 0 0.017 0 0 0 0 0.0068 0.0873 0.0207 0 0 0 0 0.0267 0 0 0 0 0 0.0213 0 0 0 0 0 0.018 0 0 0 0 0.0067 0.0922 0.0055 0 0 0 0 0.0266 0 0 0 0 0 0.0228 0 0 0 0 0 0.015 0 0 0 0 0.0067 0.0925 -0.0113 0 0 0 0 0.0247 0 0 0 0 0 0.0221 0 0 0 0 0 0.018 0 0 0 0 0.0066 0.0935 -0.0272 0 0 0 0 0.0163 0 0 0 0 0 0.0171 0 0 0 0 0 0.018 0 0 0 0 -4.47035e-06 36.3015 -2.38419e-05 -1.22354 41.6853 0.813777 -7.45058e-07 16.6114 2.38419e-05 9.92512e-06 6.83019e-06 1.17394e-06 
-2.66238 42.1133 -232.956 -0.352817 32.999 -2.8511 7.10641 -5.77885 4.71044 5.28942 -20.388 -1.46672 -4.47035e-06 -46.6626 -7.15256e-05 -6.38132 -6.7299 -0.750886 0 -38.8846 2.38419e-05 11.2006 -15.5891 9.4063 -7.21196 -6.32082 4.02963 -4.29131 -23.5429 -5.08926 -2.98023e-06 -46.9533 0 7.31568 -1.58805 0.203847 0 -38.7189 -4.76837e-05 1.23169 -7.2109 0.872626 0 4.93175 -4.93171 0.0388037 -32.6104 -0.0353698 -2.98023e-06 36.3015 7.15256e-05 -31.6569 1.16327e-05 -6.11101 19.7697 1.19209e-05 4.76837e-05 -34.9873 43.8289 -14.8759 23.0857 -3.57628e-05 0 1.55059e-05 -1.70755e-06 -46.2682 27.5131 0 -2.38419e-05 6.10017 -0.261489 -6.05571 0.0062 0.0497 0.0339 0 0 0 0 0.0215 0 0 0 0 0 0.022 0 0 0 0 0 0.017 0 0 0 0 -0.0068 0.0873 0.0207 0 0 0 0 0.0267 0 0 0 0 0 0.0213 0 0 0 0 0 0.018 0 0 0 0 -0.0067 0.0922 0.0055 0 0 0 0 0.0266 0 0 0 0 0 0.0228 0 0 0 0 0 0.015 0 0 0 0 -0.0067 0.0925 -0.0113 0 0 0 0 0.0247 0 0 0 0 0 0.0221 0 0 0 0 0 0.018 0 0 0 0 -0.0066 0.0935 -0.0272 0 0 0 0 0.0163 0 0 0 0 0 0.0171 0 0 0 0 0 0.018 0 0 0 0 -2.98023e-06 36.3015 7.15256e-05 32.2366 -4.16215e-06 6.31066 -19.1467 0 -2.38419e-05 39.935 26.5245 -2.59865 -22.3505 -1.78814e-05 0 -1.56322e-06 3.4151e-06 51.6369 -29.9517 2.38419e-05 -1.19209e-05 13.6698 0.286711 14.3469 -0.0062 0.0497 0.0339 0 0 0 0 0.0215 0 0 0 0 0 0.022 0 0 0 0 0 0.017 0 0 0 0 0.0068 0.0873 0.0207 0 0 0 0 0.0267 0 0 0 0 0 0.0213 0 0 0 0 0 0.018 0 0 0 0 0.0067 0.0922 0.0055 0 0 0 0 0.0266 0 0 0 0 0 0.0228 0 0 0 0 0 0.015 0 0 0 0 0.0067 0.0925 -0.0113 0 0 0 0 0.0247 0 0 0 0 0 0.0221 0 0 0 0 0 0.018 0 0 0 0 0.0066 0.0935 -0.0272 0 0 0 0 0.0163 0 0 0 0 0 0.0171 0 0 0 0 0 0.018 0 0 0 0 -2.98023e-06 36.3015 7.15256e-05 -2.07215 41.3299 1.36878 -1.49012e-06 17.1861 -2.38419e-05 9.60495e-06 -1.02453e-05 -7.47052e-07 
-2.66238 42.1133 -232.956 -0.352817 32.999 -2.8511 7.10641 -5.77885 4.71044 5.28942 -20.388 -1.46672 -4.47035e-06 -46.6626 -7.15256e-05 -6.38132 -6.7299 -0.750886 0 -38.8846 2.38419e-05 11.2006 -15.5891 9.4063 -7.21196 -6.32082 4.02963 -4.29131 -23.5429 -5.08926 -2.98023e-06 -46.9533 0 7.31568 -1.58805 0.203847 0 -38.7189 -4.76837e-05 1.23169 -7.2109 0.872626 0 4.93175 -4.93171 0.0388037 -32.6104 -0.0353698 -2.98023e-06 36.3015 7.15256e-05 -31.6569 1.16327e-05 -6.11101 19.7697 1.19209e-05 4.76837e-05 -34.9873 43.8289 -14.8759 23.0857 -3.57628e-05 0 1.55059e-05 -1.70755e-06 -46.2682 27.5131 0 -2.38419e-05 6.10017 -0.261489 -6.05571 0.0062 0.0497 0.0339 0 0 0 0 0.0215 0 0 0 0 0 0.022 0 0 0 0 0 0.017 0 0 0 0 -0.0068 0.0873 0.0207 0 0 0 0 0.0267 0 0 0 0 0 0.0213 0 0 0 0 0 0.018 0 0 0 0 -0.0067 0.0922 0.0055 0 0 0 0 0.0266 0 0 0 0 0 0.0228 0 0 0 0 0 0.015 0 0 0 0 -0.0067 0.0925 -0.0113 0 0 0 0 0.0247 0 0 0 0 0 0.0221 0 0 0 0 0 0.018 0 0 0 0 -0.0066 0.0935 -0.0272 0 0 0 0 0.0163 0 0 0 0 0 0.0171 0 0 0 0 0 0.018 0 0 0 0 -2.98023e-06 36.3015 7.15256e-05 32.2366 -4.16215e-06 6.31066 -19.1467 0 -2.38419e-05 39.935 26.5245 -2.59865 -22.3505 -1.78814e-05 0 -1.56322e-06 3.4151e-06 51.6369 -29.9517 2.38419e-05 -1.19209e-05 13.6698 0.286711 14.3469 -0.0062 0.0497 0.0339 0 0 0 0 0.0215 0 0 0 0 0 0.022 0 0 0 0 0 0.017 0 0 0 0 0.0068 0.0873 0.0207 0 0 0 0 0.0267 0 0 0 0 0 0.0213 0 0 0 0 0 0.018 0 0 0 0 0.0067 0.0922 0.0055 0 0 0 0 0.0266 0 0 0 0 0 0.0228 0 0 0 0 0 0.015 0 0 0 0 0.0067 0.0925 -0.0113 0 0 0 0 0.0247 0 0 0 0 0 0.0221 0 0 0 0 0 0.018 0 0 0 0 0.0066 0.0935 -0.0272 0 0 0 0 0.0163 0 0 0 0 0 0.0171 0 0 0 0 0 0.018 0 0 0 0 -2.98023e-06 36.3015 7.15256e-05 -2.07215 41.3299 1.36878 -1.49012e-06 17.1861 -2.38419e-05 9.60495e-06 -1.02453e-05 -7.47052e-07 
-2.79053 42.0829 -232.852 -0.375304 32.0519 -2.86092 7.13747 -5.8574 4.61605 5.26955 -19.3649 -1.28491 0 -46.6922 4.76837e-05 -6.42729 -6.70733 -0.753814 -1.49012e-06 -38.8566 -2.38419e-05 10.9904 -15.6199 9.22813 -7.24426 -6.34085 3.97952 -4.08956 -22.3971 -4.64644 8.9407e-06 -47.0402 2.38419e-05 7.18324 -1.81741 0.229012 -2.98023e-06 -38.6598 -2.38419e-05 1.17809 -7.39373 0.836668 1.49012e-06 4.98753 -4.9876 0.02139 -31.71 -0.0411547 -4.47035e-06 36.3015 2.38419e-05 -31.8077 1.07789e-05 -6.03507 19.829 -5.96046e-06 0 -36.0864 42.9673 -13.3478 22.9079 0 -2.38419e-05 6.87699e-06 -5.12264e-06 -42.0417 26.5834 3.57628e-05 5.96046e-06 5.02155 -0.203985 -6.18215 0.0062 0.0497 0.0339 0 0 0 0 0.0215 0 0 0 0 0 0.022 0 0 0 0 0 0.017 0 0 0 0 -0.0068 0.0873 0.0207 0 0 0 0 0.0267 0 0 0 0 0 0.0213 0 0 0 0 0 0.018 0 0 0 0 -0.0067 0.0922 0.0055 0 0 0 0 0.0266 0 0 0 0 0 0.0228 0 0 0 0 0 0.015 0 0 0 0 -0.0067 0.0925 -0.0113 0 0 0 0 0.0247 0 0 0 0 0 0.0221 0 0 0 0 0 0.018 0 0 0 0 -0.0066 0.0935 -0.0272 0 0 0 0 0.0163 0 0 0 0 0 0.0171 0 0 0 0 0 0.018 0 0 0 0 -4.47035e-06 36.3015 2.38419e-05 32.5334 -4.58903e-06 6.23883 -19.1838 -5.96046e-06 -2.38419e-05 39.8826 27.7054 -2.70382 -22.3845 -5.96046e-06 2.38419e-05 -1.33476e-05 -1.70755e-06 47.705 -29.6902 -5.96046e-06 0 13.3337 0.219369 12.7389 -0.0062 0.0497 0.0339 0 0 0 0 0.0215 0 0 0 0 0 0.022 0 0 0 0 0 0.017 0 0 0 0 0.0068 0.0873 0.0207 0 0 0 0 0.0267 0 0 0 0 0 0.0213 0 0 0 0 0 0.018 0 0 0 0 0.0067 0.0922 0.0055 0 0 0 0 0.0266 0 0 0 0 0 0.0228 0 0 0 0 0 0.015 0 0 0 0 0.0067 0.0925 -0.0113 0 0 0 0 0.0247 0 0 0 0 0 0.0221 0 0 0 0 0 0.018 0 0 0 0 0.0066 0.0935 -0.0272 0 0 0 0 0.0163 0 0 0 0 0 0.0171 0 0 0 0 0 0.018 0 0 0 0 -4.47035e-06 36.3015 2.38419e-05 -2.46026 41.0719 1.61697 1.49012e-06 17.3248 0 1.08323e-05 -1.53679e-05 3.20165e-07 
-2.94294 42.0719 -232.704 -0.368448 30.9894 -2.85577 7.18197 -5.95728 4.50561 5.18723 -18.2266 -1.11325 2.98023e-06 -46.7377 0 -6.45147 -6.6339 -0.748427 2.98023e-06 -38.821 9.53674e-05 10.6971 -15.6485 8.97723 -7.2873 -6.38294 3.91881 -3.88276 -21.1076 -4.18098 0 -47.125 4.76837e-05 6.99 -2.0503 0.251326 5.96046e-06 -38.5787 -4.76837e-05 1.07902 -7.63983 0.769416 1.49012e-06 5.06724 -5.06721 0.0305792 -30.5086 -0.020857 -2.98023e-06 36.3015 2.38419e-05 -31.9965 1.01386e-05 -5.68451 19.9439 -1.78814e-05 -2.38419e-05 -37.5703 42.9895 -10.8548 23.0438 1.19209e-05 0 2.64337e-06 -5.12264e-06 -35.411 24.8712 -3.57628e-05 -2.98023e-05 3.96418 -0.123802 -5.57458 0.0062 0.0497 0.0339 0 0 0 0 0.0215 0 0 0 0 0 0.022 0 0 0 0 0 0.017 0 0 0 0 -0.0068 0.0873 0.0207 0 0 0 0 0.0267 0 0 0 0 0 0.0213 0 0 0 0 0 0.018 0 0 0 0 -0.0067 0.0922 0.0055 0 0 0 0 0.0266 0 0 0 0 0 0.0228 0 0 0 0 0 0.015 0 0 0 0 -0.0067 0.0925 -0.0113 0 0 0 0 0.0247 0 0 0 0 0 0.0221 0 0 0 0 0 0.018 0 0 0 0 -0.0066 0.0935 -0.0272 0 0 0 0 0.0163 0 0 0 0 0 0.0171 0 0 0 0 0 0.018 0 0 0 0 -2.98023e-06 36.3015 2.38419e-05 32.9449 -4.80248e-06 5.88667 -19.2613 -1.19209e-05 -2.38419e-05 39.646 30.7446 -2.86547 -23.5152 0 0 1.30211e-05 -1.70755e-06 41.9787 -28.6147 -1.78814e-05 2.38419e-05 12.3216 0.0466338 8.60256 -0.0062 0.0497 0.0339 0 0 0 0 0.0215 0 0 0 0 0 0.022 0 0 0 0 0 0.017 0 0 0 0 0.0068 0.0873 0.0207 0 0 0 0 0.0267 0 0 0 0 0 0.0213 0 0 0 0 0 0.018 0 0 0 0 0.0067 0.0922 0.0055 0 0 0 0 0.0266 0 0 0 0 0 0.0228 0 0 0 0 0 0.015 0 0 0 0 0.0067 0.0925 -0.0113 0 0 0 0 0.0247 0 0 0 0 0 0.0221 0 0 0 0 0 0.018 0 0 0 0 0.0066 0.0935 -0.0272 0 0 0 0 0.0163 0 0 0 0 0 0.0171 0 0 0 0 0 0.018 0 0 0 0 -2.98023e-06 36.3015 2.38419e-05 -3.09537 40.3562 2.0055 -3.72529e-06 17.3596 -4.76837e-05 9.71167e-06 -1.02453e-05 5.33608e-07 
-3.02926 42.0776 -232.611 -0.366004 30.6277 -2.82317 7.21067 -5.99968 4.46646 5.14517 -17.8233 -1.03907 1.49012e-06 -46.7663 4.76837e-05 -6.46193 -6.59093 -0.74482 -7.45058e-06 -38.8135 -9.53674e-05 10.5303 -15.6637 8.83346 -7.31202 -6.40785 3.90217 -3.77878 -20.6169 -3.98875 2.98023e-06 -47.1782 7.15256e-05 6.90489 -2.18014 0.263949 -8.9407e-06 -38.5368 -9.53674e-05 1.00703 -7.79174 0.72017 4.47035e-06 5.12176 -5.12173 0.0155797 -29.7939 -0.0111619 -4.47035e-06 36.3015 0 -32.084 1.17394e-05 -5.17136 19.9926 -1.19209e-05 4.76837e-05 -38.3432 43.7478 -8.67921 23.1294 -3.57628e-05 0 4.91559e-06 -5.12264e-06 -30.3466 24.5703 4.76837e-05 5.96046e-06 3.26849 -0.0811844 -4.91475 0.0062 0.0497 0.0339 0 0 0 0 0.0215 0 0 0 0 0 0.022 0 0 0 0 0 0.017 0 0 0 0 -0.0068 0.0873 0.0207 0 0 0 0 0.0267 0 0 0 0 0 0.0213 0 0 0 0 0 0.018 0 0 0 0 -0.0067 0.0922 0.0055 0 0 0 0 0.0266 0 0 0 0 0 0.0228 0 0 0 0 0 0.015 0 0 0 0 -0.0067 0.0925 -0.0113 0 0 0 0 0.0247 0 0 0 0 0 0.0221 0 0 0 0 0 0.018 0 0 0 0 -0.0066 0.0935 -0.0272 0 0 0 0 0.0163 0 0 0 0 0 0.0171 0 0 0 0 0 0.018 0 0 0 0 -4.47035e-06 36.3015 0 33.122 -4.26887e-06 5.34314 -19.3516 -5.96046e-06 -2.38419e-05 39.4437 33.1665 -3.1131 -24.2807 1.19209e-05 7.15256e-05 1.15208e-05 1.70755e-06 36.8274 -27.3904 -1.78814e-05 -1.19209e-05 11.6209 -0.0419739 6.26555 -0.0062 0.0497 0.0339 0 0 0 0 0.0215 0 0 0 0 0 0.022 0 0 0 0 0 0.017 0 0 0 0 0.0068 0.0873 0.0207 0 0 0 0 0.0267 0 0 0 0 0 0.0213 0 0 0 0 0 0.018 0 0 0 0 0.0067 0.0922 0.0055 0 0 0 0 0.0266 0 0 0 0 0 0.0228 0 0 0 0 0 0.015 0 0 0 0 0.0067 0.0925 -0.0113 0 0 0 0 0.0247 0 0 0 0 0 0.0221 0 0 0 0 0 0.018 0 0 0 0 0.0066 0.0935 -0.0272 0 0 0 0 0.0163 0 0 0 0 0 0.0171 0 0 0 0 0 0.018 0 0 0 0 -4.47035e-06 36.3015 0 -3.35186 39.1621 2.11821 -2.23517e-06 17.2095 4.76837e-05 1.02986e-05 -1.70755e-05 0 
